<svg version="1.0" xmlns="http://www.w3.org/2000/svg" width="266.667" height="266.667" viewBox="0 0 200 200"><path d="M0 100v100h200V0H0v100zm196.8.2l.2 96.8H3v-96.3c0-53 .3-96.7.7-97 .3-.4 43.9-.6 96.7-.5l96.1.3.3 96.7z"/><path d="M25 100v75h150V25H25v75zm148 .5V174H27V27h146v73.5z"/><path d="M40.7 51.6c-.4.4-.7 4.9-.7 10 0 8.3.2 9.2 2 9.7 2 .5 2 1.4 2 34.4 0 31.7.1 34 2 37 1.8 3.1 5.7 5.9 6.7 5 .2-.3-.4-.8-1.4-1.1-1-.3-2.8-2.1-4-3.9-2.3-3.3-2.3-3.7-2.3-37.6 0-33.7 0-34.3-2-34.8-1.9-.5-2.1-1.2-1.8-9.2l.3-8.6h35l.3 37.2.2 37.3h6c3.3 0 6-.3 6-.8 0-.4-2.5-.5-5.5-.4l-5.5.4-.2-37.4-.3-37.3-18.1-.3c-9.9-.1-18.3.1-18.7.4z"/><path d="M129 63.2l-.1 12.3L126 70c-3.9-7.4-3.8-5.9.3 2.6l3.2 6.9.5-13.5.5-13.5h13.8c8.5 0 13.7.4 13.7 1s-3.3 1.1-7.8 1.1l-7.7.2-.3 26.6c-.1 14.6-.6 26.6-1 26.5-.4 0-6.5-11.7-13.7-26-7.1-14.4-13.3-26.3-13.8-26.6-.4-.2-4.6-.5-9.2-.6l-8.4-.2-.3 6.8-.3 6.7h5.5v64H73V93.4l.1-38.6H53.5l-.3 6.6c-.2 5.3 0 6.6 1.2 6.6 1.3 0 1.5 4.7 1.8 35.2.3 31.7.5 35.6 2.1 38.6 1 1.8 3 3.8 4.5 4.5 2.5 1.1 2.3 1.2-3.3 1.8-3.3.3 8.1.6 25.3.7l31.2.2v-6.5c0-6.5 0-6.5 2.8-6.5 2.6 0 3.1.6 5.3 6.3l2.4 6.2 16.8.3 16.7.2-.2-48.7-.3-48.8-15.2-.3-15.3-.3v12.3zm-7.7 39.1c4.8 11.1 8.7 20.5 8.7 20.9 0 .5-2.7.8-6 .8-5.4 0-6.1-.2-7.5-2.8-1.3-2.2-1.5-2.3-1-.5.5 1.9.2 2.3-1.4 2.3-1.8 0-2.1-.6-2.1-4.8.1-4.6.1-4.6 1.5-2.2.8 1.4 1.4 2.1 1.5 1.7 0-.5-.6-1.8-1.2-3-1.3-2.1-2.9-32.7-1.8-32.7.3 0 4.4 9.2 9.3 20.3z"/></svg>