<?xml version="1.0" standalone="no"?>
<!DOCTYPE svg PUBLIC "-//W3C//DTD SVG 20010904//EN"
 "http://www.w3.org/TR/2001/REC-SVG-20010904/DTD/svg10.dtd">
<svg version="1.0" xmlns="http://www.w3.org/2000/svg"
 width="200.000000pt" height="200.000000pt" viewBox="0 0 200.000000 200.000000"
 preserveAspectRatio="xMidYMid meet">
<metadata>
Created by potrace 1.16, written by Peter Selinger 2001-2019
</metadata>
<g transform="translate(0.000000,200.000000) scale(0.100000,-0.100000)"
fill="#000000" stroke="none">
<path d="M0 1000 l0 -1000 1000 0 1000 0 0 1000 0 1000 -1000 0 -1000 0 0
-1000z m1968 -2 l2 -968 -970 0 -970 0 0 963 c0 530 3 967 7 970 3 4 439 6
967 5 l961 -3 3 -967z"/>
<path d="M250 1000 l0 -750 750 0 750 0 0 750 0 750 -750 0 -750 0 0 -750z
m1480 -5 l0 -735 -730 0 -730 0 0 735 0 735 730 0 730 0 0 -735z"/>
<path d="M407 1484 c-4 -4 -7 -49 -7 -100 0 -83 2 -92 20 -97 20 -5 20 -14 20
-344 0 -317 1 -340 20 -370 18 -31 57 -59 67 -50 2 3 -4 8 -14 11 -10 3 -28
21 -40 39 -23 33 -23 37 -23 376 0 337 0 343 -20 348 -19 5 -21 12 -18 92 l3
86 175 0 175 0 3 -372 2 -373 60 0 c33 0 60 3 60 8 0 4 -25 5 -55 4 l-55 -4
-2 374 -3 373 -181 3 c-99 1 -183 -1 -187 -4z"/>
<path d="M1290 1368 l-1 -123 -29 55 c-39 74 -38 59 3 -26 l32 -69 5 135 5
135 138 0 c85 0 137 -4 137 -10 0 -6 -33 -11 -78 -11 l-77 -2 -3 -266 c-1
-146 -6 -266 -10 -265 -4 0 -65 117 -137 260 -71 144 -133 263 -138 266 -4 2
-46 5 -92 6 l-84 2 -3 -68 -3 -67 28 0 27 0 0 -320 0 -320 -140 0 -140 0 0
386 1 386 -98 0 -98 0 -3 -66 c-2 -53 0 -66 12 -66 13 0 15 -47 18 -352 3
-317 5 -356 21 -386 10 -18 30 -38 45 -45 25 -11 23 -12 -33 -18 -33 -3 81 -6
253 -7 l312 -2 0 65 c0 65 0 65 28 65 26 0 31 -6 53 -63 l24 -62 168 -3 167
-2 -2 487 -3 488 -152 3 -153 3 0 -123z m-77 -391 c48 -111 87 -205 87 -209 0
-5 -27 -8 -60 -8 -54 0 -61 2 -75 28 -13 22 -15 23 -10 5 5 -19 2 -23 -14 -23
-18 0 -21 6 -21 48 1 46 1 46 15 22 8 -14 14 -21 15 -17 0 5 -6 18 -12 30 -13
21 -29 327 -18 327 3 0 44 -92 93 -203z"/>
</g>
</svg>
